<?xml version="1.0" encoding="UTF-8"?><svg xmlns="http://www.w3.org/2000/svg" xmlns:xlink="http://www.w3.org/1999/xlink" fill-opacity="1" color-rendering="auto" color-interpolation="auto" text-rendering="auto" stroke="black" stroke-linecap="square" width="1223" stroke-miterlimit="10" shape-rendering="auto" stroke-opacity="1" fill="black" stroke-dasharray="none" font-weight="normal" stroke-width="1" height="1050" font-family="'Dialog'" font-style="normal" stroke-linejoin="miter" font-size="12px" stroke-dashoffset="0" image-rendering="auto">
  <!--Generated by ySVG 2.5-->
  <defs id="genericDefs"/>
  <g>
    <defs id="defs1">
      <clipPath clipPathUnits="userSpaceOnUse" id="clipPath1">
        <path d="M0 0 L1223 0 L1223 1050 L0 1050 L0 0 Z"/>
      </clipPath>
      <clipPath clipPathUnits="userSpaceOnUse" id="clipPath2">
        <path d="M175 -689 L1398 -689 L1398 361 L175 361 L175 -689 Z"/>
      </clipPath>
    </defs>
    <g fill="white" text-rendering="geometricPrecision" shape-rendering="geometricPrecision" transform="translate(-175,689)" stroke="white">
      <rect x="175" width="1223" height="1050" y="-689" clip-path="url(#clipPath2)" stroke="none"/>
    </g>
    <g fill="rgb(255,153,204)" text-rendering="geometricPrecision" shape-rendering="geometricPrecision" transform="matrix(1,0,0,1,-175,689)" stroke="rgb(255,153,204)">
      <rect x="471.528" width="910.64" height="606" y="-673.944" clip-path="url(#clipPath2)" stroke="none"/>
    </g>
    <g text-rendering="geometricPrecision" stroke-miterlimit="1.45" shape-rendering="geometricPrecision" transform="matrix(1,0,0,1,-175,689)" stroke-linecap="butt">
      <rect fill="none" x="471.528" width="910.64" height="606" y="-673.944" clip-path="url(#clipPath2)"/>
    </g>
    <g fill="rgb(153,204,0)" text-rendering="geometricPrecision" shape-rendering="geometricPrecision" transform="matrix(1,0,0,1,-175,689)" stroke="rgb(153,204,0)">
      <rect x="1164.7703" width="170.672" height="236.976" y="-395.12" clip-path="url(#clipPath2)" stroke="none"/>
    </g>
    <g text-rendering="geometricPrecision" stroke-miterlimit="1.45" shape-rendering="geometricPrecision" transform="matrix(1,0,0,1,-175,689)" stroke-linecap="butt">
      <rect fill="none" x="1164.7703" width="170.672" height="236.976" y="-395.12" clip-path="url(#clipPath2)"/>
      <text x="1179.785" font-size="18px" y="-376.412" clip-path="url(#clipPath2)" font-family="sans-serif" stroke="none" xml:space="preserve">Definition block</text>
    </g>
    <g fill="rgb(255,204,0)" text-rendering="geometricPrecision" shape-rendering="geometricPrecision" transform="matrix(1,0,0,1,-175,689)" stroke="rgb(255,204,0)">
      <rect x="205" width="111.28" height="40.88" y="-668" clip-path="url(#clipPath2)" stroke="none"/>
    </g>
    <g text-rendering="geometricPrecision" stroke-miterlimit="1.45" shape-rendering="geometricPrecision" transform="matrix(1,0,0,1,-175,689)" stroke-linecap="butt">
      <rect fill="none" x="205" width="111.28" height="40.88" y="-668" clip-path="url(#clipPath2)"/>
      <text x="232.9046" xml:space="preserve" y="-643.4057" clip-path="url(#clipPath2)" font-family="sans-serif" stroke="none">Power on</text>
    </g>
    <g fill="rgb(255,204,0)" text-rendering="geometricPrecision" shape-rendering="geometricPrecision" transform="matrix(1,0,0,1,-175,689)" stroke="rgb(255,204,0)">
      <rect x="190.28" width="140.72" height="47.92" y="-606.52" clip-path="url(#clipPath2)" stroke="none"/>
    </g>
    <g text-rendering="geometricPrecision" stroke-miterlimit="1.45" shape-rendering="geometricPrecision" transform="matrix(1,0,0,1,-175,689)" stroke-linecap="butt">
      <rect fill="none" x="190.28" width="140.72" height="47.92" y="-606.52" clip-path="url(#clipPath2)"/>
      <text x="208.1869" xml:space="preserve" y="-585.3901" clip-path="url(#clipPath2)" font-family="sans-serif" stroke="none">System Firmware</text>
      <text x="206.2181" xml:space="preserve" y="-571.4213" clip-path="url(#clipPath2)" font-family="sans-serif" stroke="none">Update ACPI table</text>
    </g>
    <g fill="rgb(255,204,0)" text-rendering="geometricPrecision" shape-rendering="geometricPrecision" transform="matrix(1,0,0,1,-175,689)" stroke="rgb(255,204,0)">
      <rect x="209.48" width="102.32" height="37.04" y="-538" clip-path="url(#clipPath2)" stroke="none"/>
    </g>
    <g text-rendering="geometricPrecision" stroke-miterlimit="1.45" shape-rendering="geometricPrecision" transform="matrix(1,0,0,1,-175,689)" stroke-linecap="butt">
      <rect fill="none" x="209.48" width="102.32" height="37.04" y="-538" clip-path="url(#clipPath2)"/>
      <text x="221.6224" xml:space="preserve" y="-522.3101" clip-path="url(#clipPath2)" font-family="sans-serif" stroke="none">Hang over to</text>
      <text x="228.1556" xml:space="preserve" y="-508.3413" clip-path="url(#clipPath2)" font-family="sans-serif" stroke="none">bootloader</text>
    </g>
    <g fill="rgb(204,255,255)" text-rendering="geometricPrecision" shape-rendering="geometricPrecision" transform="matrix(1,0,0,1,-175,689)" stroke="rgb(204,255,255)">
      <rect x="726.5623" width="154.8" height="40.88" y="-603" clip-path="url(#clipPath2)" stroke="none"/>
    </g>
    <g text-rendering="geometricPrecision" stroke-miterlimit="1.45" shape-rendering="geometricPrecision" transform="matrix(1,0,0,1,-175,689)" stroke-linecap="butt">
      <rect fill="none" x="726.5623" width="154.8" height="40.88" y="-603" clip-path="url(#clipPath2)"/>
      <text x="734.7484" xml:space="preserve" y="-585.3901" clip-path="url(#clipPath2)" font-family="sans-serif" stroke="none">eXtended root System </text>
      <text x="733.3744" xml:space="preserve" y="-571.4213" clip-path="url(#clipPath2)" font-family="sans-serif" stroke="none">Decrption Table (XSDT)</text>
    </g>
    <g fill="rgb(204,255,255)" text-rendering="geometricPrecision" shape-rendering="geometricPrecision" transform="matrix(1,0,0,1,-175,689)" stroke="rgb(204,255,255)">
      <rect x="520.1246" width="170.672" height="40.88" y="-491.4" clip-path="url(#clipPath2)" stroke="none"/>
    </g>
    <g text-rendering="geometricPrecision" stroke-miterlimit="1.45" shape-rendering="geometricPrecision" transform="matrix(1,0,0,1,-175,689)" stroke-linecap="butt">
      <rect fill="none" x="520.1246" width="170.672" height="40.88" y="-491.4" clip-path="url(#clipPath2)"/>
      <text x="571.7955" xml:space="preserve" y="-473.7901" clip-path="url(#clipPath2)" font-family="sans-serif" stroke="none">Fixed ACPI </text>
      <text x="528.5358" xml:space="preserve" y="-459.8213" clip-path="url(#clipPath2)" font-family="sans-serif" stroke="none">Description Table (FADT) </text>
    </g>
    <g fill="rgb(204,255,255)" text-rendering="geometricPrecision" shape-rendering="geometricPrecision" transform="matrix(1,0,0,1,-175,689)" stroke="rgb(204,255,255)">
      <rect x="528.1246" width="154.8" height="40.88" y="-408.52" clip-path="url(#clipPath2)" stroke="none"/>
    </g>
    <g text-rendering="geometricPrecision" stroke-miterlimit="1.45" shape-rendering="geometricPrecision" transform="matrix(1,0,0,1,-175,689)" stroke-linecap="butt">
      <rect fill="none" x="528.1246" width="154.8" height="40.88" y="-408.52" clip-path="url(#clipPath2)"/>
      <text x="537.6232" xml:space="preserve" y="-390.9101" clip-path="url(#clipPath2)" font-family="sans-serif" stroke="none">Differentiated System </text>
      <text x="534.9367" xml:space="preserve" y="-376.9413" clip-path="url(#clipPath2)" font-family="sans-serif" stroke="none">Decrption Table (XSDT)</text>
      <path fill="none" d="M260.64 -627.12 L260.64 -614.52" clip-path="url(#clipPath2)"/>
      <path d="M260.64 -606.52 L265.64 -618.52 L260.64 -615.52 L255.64 -618.52 Z" clip-path="url(#clipPath2)" stroke="none"/>
      <path fill="none" d="M260.64 -558.6 L260.64 -546" clip-path="url(#clipPath2)"/>
      <path d="M260.64 -538 L265.64 -550 L260.64 -547 L255.64 -550 Z" clip-path="url(#clipPath2)" stroke="none"/>
      <path fill="none" stroke-dasharray="6,2" d="M331 -582.56 L378.128 -582.56 L378.128 -637.184 L803.9623 -637.184 L803.9623 -611" clip-path="url(#clipPath2)"/>
      <path stroke-dasharray="6,2" d="M803.9623 -603 L808.9623 -615 L803.9623 -612 L798.9623 -615 Z" clip-path="url(#clipPath2)" stroke="none"/>
      <text x="826.9976" xml:space="preserve" y="-633.0297" clip-path="url(#clipPath2)" font-family="sans-serif" stroke="none">Creates</text>
      <path fill="none" d="M803.9623 -562.12 L803.9623 -532.4822 L605.5246 -532.4822 L605.4902 -499.4" clip-path="url(#clipPath2)"/>
      <path d="M605.4818 -491.4 L610.4943 -503.3948 L605.4912 -500.4 L600.4944 -503.4052 Z" clip-path="url(#clipPath2)" stroke="none"/>
      <path fill="none" d="M605.4764 -450.52 L605.5026 -416.52" clip-path="url(#clipPath2)"/>
      <path d="M605.5088 -408.52 L610.4995 -420.5238 L605.5018 -417.52 L600.4996 -420.5161 Z" clip-path="url(#clipPath2)" stroke="none"/>
    </g>
    <g fill="rgb(245,245,245)" text-rendering="geometricPrecision" shape-rendering="geometricPrecision" transform="matrix(1,0,0,1,-175,689)" stroke="rgb(245,245,245)">
      <rect x="537.68" y="-301.3832" clip-path="url(#clipPath2)" width="532.5646" rx="4" ry="4" height="127.4689" stroke="none"/>
      <rect x="537.68" y="-301.3832" clip-path="url(#clipPath2)" fill="rgb(235,235,235)" width="532.5646" height="21.4609" stroke="none"/>
    </g>
    <g font-size="15px" stroke-linecap="butt" transform="matrix(1,0,0,1,-175,689)" text-rendering="geometricPrecision" font-family="sans-serif" shape-rendering="geometricPrecision" stroke-miterlimit="1.45">
      <text x="943.2275" xml:space="preserve" y="-285.4598" clip-path="url(#clipPath2)" stroke="none">Definition blocks</text>
      <rect x="537.68" y="-301.3832" clip-path="url(#clipPath2)" fill="none" width="532.5646" stroke-dasharray="6,2" rx="4" ry="4" height="127.4689"/>
    </g>
    <g fill="rgb(153,204,0)" text-rendering="geometricPrecision" shape-rendering="geometricPrecision" transform="matrix(1,0,0,1,-175,689)" stroke="rgb(153,204,0)">
      <rect x="900.4446" width="154.8" height="40.88" y="-229.7942" clip-path="url(#clipPath2)" stroke="none"/>
    </g>
    <g text-rendering="geometricPrecision" stroke-miterlimit="1.45" shape-rendering="geometricPrecision" transform="matrix(1,0,0,1,-175,689)" stroke-linecap="butt">
      <rect fill="none" x="900.4446" width="154.8" height="40.88" y="-229.7942" clip-path="url(#clipPath2)"/>
    </g>
    <g fill="rgb(153,204,0)" text-rendering="geometricPrecision" shape-rendering="geometricPrecision" transform="matrix(1,0,0,1,-175,689)" stroke="rgb(153,204,0)">
      <rect x="889.4823" width="154.8" height="40.88" y="-242.3942" clip-path="url(#clipPath2)" stroke="none"/>
    </g>
    <g text-rendering="geometricPrecision" stroke-miterlimit="1.45" shape-rendering="geometricPrecision" transform="matrix(1,0,0,1,-175,689)" stroke-linecap="butt">
      <rect fill="none" x="889.4823" width="154.8" height="40.88" y="-242.3942" clip-path="url(#clipPath2)"/>
    </g>
    <g fill="rgb(153,204,0)" text-rendering="geometricPrecision" shape-rendering="geometricPrecision" transform="matrix(1,0,0,1,-175,689)" stroke="rgb(153,204,0)">
      <rect x="880.72" width="154.8" height="40.88" y="-255.1942" clip-path="url(#clipPath2)" stroke="none"/>
    </g>
    <g text-rendering="geometricPrecision" stroke-miterlimit="1.45" shape-rendering="geometricPrecision" transform="matrix(1,0,0,1,-175,689)" stroke-linecap="butt">
      <rect fill="none" x="880.72" width="154.8" height="40.88" y="-255.1942" clip-path="url(#clipPath2)"/>
      <text x="911.2391" xml:space="preserve" y="-230.5999" clip-path="url(#clipPath2)" font-family="sans-serif" stroke="none">Definition block</text>
      <path fill="none" d="M605.5246 -367.64 L605.5246 -327.1489 L804.068 -327.1489 L804.068 -309.3617" clip-path="url(#clipPath2)"/>
      <path d="M804.068 -301.3617 L809.068 -313.3617 L804.068 -310.3617 L799.068 -313.3617 Z" clip-path="url(#clipPath2)" stroke="none"/>
    </g>
    <g fill="rgb(245,245,245)" text-rendering="geometricPrecision" shape-rendering="geometricPrecision" transform="matrix(1,0,0,1,-175,689)" stroke="rgb(245,245,245)">
      <rect x="711.5623" y="-527.8609" clip-path="url(#clipPath2)" width="204.5246" rx="4" ry="4" height="117.7409" stroke="none"/>
      <rect x="711.5623" y="-527.8609" clip-path="url(#clipPath2)" fill="rgb(235,235,235)" width="204.5246" height="21.4609" stroke="none"/>
    </g>
    <g font-size="15px" stroke-linecap="butt" transform="matrix(1,0,0,1,-175,689)" text-rendering="geometricPrecision" font-family="sans-serif" shape-rendering="geometricPrecision" stroke-miterlimit="1.45">
      <text x="866.5161" xml:space="preserve" y="-511.9376" clip-path="url(#clipPath2)" stroke="none">SSDTs</text>
      <rect x="711.5623" y="-527.8609" clip-path="url(#clipPath2)" fill="none" width="204.5246" stroke-dasharray="6,2" rx="4" ry="4" height="117.7409"/>
    </g>
    <g fill="rgb(204,255,255)" text-rendering="geometricPrecision" shape-rendering="geometricPrecision" transform="matrix(1,0,0,1,-175,689)" stroke="rgb(204,255,255)">
      <rect x="746.2869" width="154.8" height="40.88" y="-466" clip-path="url(#clipPath2)" stroke="none"/>
    </g>
    <g text-rendering="geometricPrecision" stroke-miterlimit="1.45" shape-rendering="geometricPrecision" transform="matrix(1,0,0,1,-175,689)" stroke-linecap="butt">
      <rect fill="none" x="746.2869" width="154.8" height="40.88" y="-466" clip-path="url(#clipPath2)"/>
    </g>
    <g fill="rgb(204,255,255)" text-rendering="geometricPrecision" shape-rendering="geometricPrecision" transform="matrix(1,0,0,1,-175,689)" stroke="rgb(204,255,255)">
      <rect x="735.3246" width="154.8" height="40.88" y="-478.6" clip-path="url(#clipPath2)" stroke="none"/>
    </g>
    <g text-rendering="geometricPrecision" stroke-miterlimit="1.45" shape-rendering="geometricPrecision" transform="matrix(1,0,0,1,-175,689)" stroke-linecap="butt">
      <rect fill="none" x="735.3246" width="154.8" height="40.88" y="-478.6" clip-path="url(#clipPath2)"/>
    </g>
    <g fill="rgb(204,255,255)" text-rendering="geometricPrecision" shape-rendering="geometricPrecision" transform="matrix(1,0,0,1,-175,689)" stroke="rgb(204,255,255)">
      <rect x="726.5623" width="154.8" height="40.88" y="-491.4" clip-path="url(#clipPath2)" stroke="none"/>
    </g>
    <g text-rendering="geometricPrecision" stroke-miterlimit="1.45" shape-rendering="geometricPrecision" transform="matrix(1,0,0,1,-175,689)" stroke-linecap="butt">
      <rect fill="none" x="726.5623" width="154.8" height="40.88" y="-491.4" clip-path="url(#clipPath2)"/>
      <text x="747.9056" xml:space="preserve" y="-473.7901" clip-path="url(#clipPath2)" font-family="sans-serif" stroke="none">Secondary System</text>
      <text x="728.8832" xml:space="preserve" y="-459.8213" clip-path="url(#clipPath2)" font-family="sans-serif" stroke="none">Description Table (SSDT)</text>
    </g>
    <g fill="rgb(204,255,255)" text-rendering="geometricPrecision" shape-rendering="geometricPrecision" transform="matrix(1,0,0,1,-175,689)" stroke="rgb(204,255,255)">
      <rect x="984.1737" width="154.8" height="40.88" y="-466" clip-path="url(#clipPath2)" stroke="none"/>
    </g>
    <g text-rendering="geometricPrecision" stroke-miterlimit="1.45" shape-rendering="geometricPrecision" transform="matrix(1,0,0,1,-175,689)" stroke-linecap="butt">
      <rect fill="none" x="984.1737" width="154.8" height="40.88" y="-466" clip-path="url(#clipPath2)"/>
    </g>
    <g fill="rgb(204,255,255)" text-rendering="geometricPrecision" shape-rendering="geometricPrecision" transform="matrix(1,0,0,1,-175,689)" stroke="rgb(204,255,255)">
      <rect x="973.2114" width="154.8" height="40.88" y="-478.6" clip-path="url(#clipPath2)" stroke="none"/>
    </g>
    <g text-rendering="geometricPrecision" stroke-miterlimit="1.45" shape-rendering="geometricPrecision" transform="matrix(1,0,0,1,-175,689)" stroke-linecap="butt">
      <rect fill="none" x="973.2114" width="154.8" height="40.88" y="-478.6" clip-path="url(#clipPath2)"/>
    </g>
    <g fill="rgb(204,255,255)" text-rendering="geometricPrecision" shape-rendering="geometricPrecision" transform="matrix(1,0,0,1,-175,689)" stroke="rgb(204,255,255)">
      <rect x="964.4491" width="154.8" height="40.88" y="-491.4" clip-path="url(#clipPath2)" stroke="none"/>
    </g>
    <g text-rendering="geometricPrecision" stroke-miterlimit="1.45" shape-rendering="geometricPrecision" transform="matrix(1,0,0,1,-175,689)" stroke-linecap="butt">
      <rect fill="none" x="964.4491" width="154.8" height="40.88" y="-491.4" clip-path="url(#clipPath2)"/>
      <text x="985.7603" xml:space="preserve" y="-466.8057" clip-path="url(#clipPath2)" font-family="sans-serif" stroke="none">Otheer ACP Tables</text>
    </g>
    <g fill="rgb(204,255,255)" text-rendering="geometricPrecision" shape-rendering="geometricPrecision" transform="matrix(1,0,0,1,-175,689)" stroke="rgb(204,255,255)">
      <rect x="1170.9669" width="154.8" height="112.3898" y="-301.304" clip-path="url(#clipPath2)" stroke="none"/>
    </g>
    <g text-rendering="geometricPrecision" stroke-miterlimit="1.45" shape-rendering="geometricPrecision" transform="matrix(1,0,0,1,-175,689)" stroke-linecap="butt">
      <rect fill="none" x="1170.9669" width="154.8" height="112.3898" y="-301.304" clip-path="url(#clipPath2)"/>
      <text x="1199.5436" xml:space="preserve" y="-282.8611" clip-path="url(#clipPath2)" font-family="sans-serif" stroke="none">ACPI Machine </text>
      <text x="1199.5436" xml:space="preserve" y="-268.8923" clip-path="url(#clipPath2)" font-family="sans-serif" stroke="none">Language (AML)</text>
      <text x="1199.5436" xml:space="preserve" y="-254.9236" clip-path="url(#clipPath2)" font-family="sans-serif" stroke="none">byte code for</text>
      <text x="1199.5436" xml:space="preserve" y="-240.9548" clip-path="url(#clipPath2)" font-family="sans-serif" stroke="none"> </text>
      <text x="1199.5436" xml:space="preserve" y="-226.9861" clip-path="url(#clipPath2)" font-family="sans-serif" stroke="none">Access device </text>
      <text x="1199.5436" xml:space="preserve" y="-213.0173" clip-path="url(#clipPath2)" font-family="sans-serif" stroke="none">control method</text>
      <text x="1199.5436" xml:space="preserve" y="-199.0486" clip-path="url(#clipPath2)" font-family="sans-serif" stroke="none">from OS</text>
    </g>
    <g fill="rgb(204,255,255)" text-rendering="geometricPrecision" shape-rendering="geometricPrecision" transform="matrix(1,0,0,1,-175,689)" stroke="rgb(204,255,255)">
      <rect x="1170.9669" width="154.8" height="40.88" y="-342.184" clip-path="url(#clipPath2)" stroke="none"/>
    </g>
    <g text-rendering="geometricPrecision" stroke-miterlimit="1.45" shape-rendering="geometricPrecision" transform="matrix(1,0,0,1,-175,689)" stroke-linecap="butt">
      <rect fill="none" x="1170.9669" width="154.8" height="40.88" y="-342.184" clip-path="url(#clipPath2)"/>
      <text x="1224.8737" xml:space="preserve" y="-317.5897" clip-path="url(#clipPath2)" font-family="sans-serif" stroke="none">ID table</text>
    </g>
    <g fill="rgb(255,204,0)" text-rendering="geometricPrecision" shape-rendering="geometricPrecision" transform="matrix(1,0,0,1,-175,689)" stroke="rgb(255,204,0)">
      <rect x="209.48" width="102.32" height="37.04" y="-480.36" clip-path="url(#clipPath2)" stroke="none"/>
    </g>
    <g text-rendering="geometricPrecision" stroke-miterlimit="1.45" shape-rendering="geometricPrecision" transform="matrix(1,0,0,1,-175,689)" stroke-linecap="butt">
      <rect fill="none" x="209.48" width="102.32" height="37.04" y="-480.36" clip-path="url(#clipPath2)"/>
      <text x="228.7796" xml:space="preserve" y="-457.6857" clip-path="url(#clipPath2)" font-family="sans-serif" stroke="none">OS Bootup</text>
    </g>
    <g fill="rgb(255,204,0)" text-rendering="geometricPrecision" shape-rendering="geometricPrecision" transform="matrix(1,0,0,1,-175,689)" stroke="rgb(255,204,0)">
      <rect x="209.48" width="102.32" height="37.04" y="-422.72" clip-path="url(#clipPath2)" stroke="none"/>
    </g>
    <g text-rendering="geometricPrecision" stroke-miterlimit="1.45" shape-rendering="geometricPrecision" transform="matrix(1,0,0,1,-175,689)" stroke-linecap="butt">
      <rect fill="none" x="209.48" width="102.32" height="37.04" y="-422.72" clip-path="url(#clipPath2)"/>
      <text x="213.6507" xml:space="preserve" y="-400.0457" clip-path="url(#clipPath2)" font-family="sans-serif" stroke="none">AML interpreter</text>
      <text x="325.0439" xml:space="preserve" y="-478.7341" clip-path="url(#clipPath2)" font-family="sans-serif" stroke="none">Read ACPI tables</text>
      <text x="349.2021" xml:space="preserve" y="-464.7653" clip-path="url(#clipPath2)" font-family="sans-serif" stroke="none">via XSDT</text>
      <text x="329.1069" xml:space="preserve" y="-437.5341" clip-path="url(#clipPath2)" font-family="sans-serif" stroke="none">Enumerating and run </text>
      <text x="345.7007" xml:space="preserve" y="-423.5653" clip-path="url(#clipPath2)" font-family="sans-serif" stroke="none">definition blocks</text>
      <text x="956.4072" xml:space="preserve" y="-546.6537" clip-path="url(#clipPath2)" font-family="sans-serif" stroke="none">Point to</text>
    </g>
    <g fill="rgb(255,204,153)" text-rendering="geometricPrecision" shape-rendering="geometricPrecision" transform="matrix(1,0,0,1,-175,689)" stroke="rgb(255,204,153)">
      <rect x="543.8154" width="526.4291" height="296.1333" y="49.6115" clip-path="url(#clipPath2)" stroke="none"/>
    </g>
    <g text-rendering="geometricPrecision" stroke-miterlimit="1.45" shape-rendering="geometricPrecision" transform="matrix(1,0,0,1,-175,689)" stroke-linecap="butt">
      <rect fill="none" x="543.8154" width="526.4291" height="296.1333" y="49.6115" clip-path="url(#clipPath2)"/>
      <text x="582.03" font-size="24px" y="94.2368" clip-path="url(#clipPath2)" font-family="sans-serif" stroke="none" xml:space="preserve">ACPI name space to provide</text>
      <text x="582.03" font-size="24px" y="122.1743" clip-path="url(#clipPath2)" font-family="sans-serif" stroke="none" xml:space="preserve">1. System informaion</text>
      <text x="582.03" font-size="24px" y="150.1118" clip-path="url(#clipPath2)" font-family="sans-serif" stroke="none" xml:space="preserve">    (ACPI tables)</text>
      <text x="582.03" font-size="24px" y="178.0493" clip-path="url(#clipPath2)" font-family="sans-serif" stroke="none" xml:space="preserve">2. Device control method </text>
      <text x="582.03" font-size="24px" y="205.9868" clip-path="url(#clipPath2)" font-family="sans-serif" stroke="none" xml:space="preserve">    (Definition block)</text>
      <text x="582.03" font-size="24px" y="233.9243" clip-path="url(#clipPath2)" font-family="sans-serif" stroke="none" xml:space="preserve">3. ACPI events handling  and device </text>
      <text x="582.03" font-size="24px" y="261.8618" clip-path="url(#clipPath2)" font-family="sans-serif" stroke="none" xml:space="preserve">    events handling (use General</text>
      <text x="582.03" font-size="24px" y="289.7993" clip-path="url(#clipPath2)" font-family="sans-serif" stroke="none" xml:space="preserve">    Purpose Events (GPE)) and System</text>
      <text x="582.03" font-size="24px" y="317.7368" clip-path="url(#clipPath2)" font-family="sans-serif" stroke="none" xml:space="preserve">    Control Interrupt (SCI)</text>
      <text x="437.5088" xml:space="preserve" y="85.3658" clip-path="url(#clipPath2)" font-family="sans-serif" stroke="none"> </text>
      <text x="385.0378" xml:space="preserve" y="40.8283" clip-path="url(#clipPath2)" font-family="sans-serif" stroke="none">Creat ACPI namespace</text>
      <text x="385.0378" xml:space="preserve" y="54.7971" clip-path="url(#clipPath2)" font-family="sans-serif" stroke="none">from</text>
      <text x="385.0378" xml:space="preserve" y="68.7658" clip-path="url(#clipPath2)" font-family="sans-serif" stroke="none"> </text>
      <text x="385.0378" xml:space="preserve" y="82.7346" clip-path="url(#clipPath2)" font-family="sans-serif" stroke="none">1. ACPI tables</text>
      <text x="385.0378" xml:space="preserve" y="96.7033" clip-path="url(#clipPath2)" font-family="sans-serif" stroke="none">2. Definition block</text>
      <path fill="none" d="M803.9623 -562.12 L803.9623 -499.4" clip-path="url(#clipPath2)"/>
      <path d="M803.9623 -491.4 L808.9623 -503.4 L803.9623 -500.4 L798.9623 -503.4 Z" clip-path="url(#clipPath2)" stroke="none"/>
      <path fill="none" d="M803.9623 -450.52 L803.9623 -303.488 L803.9623 -301.3984" clip-path="url(#clipPath2)"/>
      <path d="M803.9623 -301.3984 L808.9623 -313.3984 L803.9623 -310.3984 L798.9623 -313.3984 Z" clip-path="url(#clipPath2)" stroke="none"/>
      <path fill="none" d="M803.9623 -562.12 L803.9623 -532.4822 L1041.8491 -532.4822 L1041.8491 -499.4" clip-path="url(#clipPath2)"/>
      <path d="M1041.8491 -491.4 L1046.8491 -503.4 L1041.8491 -500.4 L1036.8491 -503.4 Z" clip-path="url(#clipPath2)" stroke="none"/>
    </g>
    <g stroke-linecap="butt" transform="matrix(1,0,0,1,-175,689)" fill="red" text-rendering="geometricPrecision" shape-rendering="geometricPrecision" stroke="red" stroke-width="7" stroke-miterlimit="1.45">
      <path d="M1149.952 -269.478 L1153.1021 -264.228 L1110.1 -264.228 L1110.1 -260.728 L1110.1 -238.2542 L1035.52 -238.2542 L1035.52 -231.2542 L1117.1 -231.2542 L1117.1 -234.7542 L1117.1 -257.228 L1153.1021 -257.228 L1149.952 -251.978 L1170.952 -260.728 L1149.952 -269.478 Z" stroke="none" clip-path="url(#clipPath2)"/>
      <path fill="none" d="M1149.952 -269.478 L1153.1021 -264.228 L1110.1 -264.228 L1110.1 -260.728 L1110.1 -238.2542 L1035.52 -238.2542 L1035.52 -231.2542 L1117.1 -231.2542 L1117.1 -234.7542 L1117.1 -257.228 L1153.1021 -257.228 L1149.952 -251.978 L1170.952 -260.728 L1149.952 -269.478 Z" stroke-width="1" clip-path="url(#clipPath2)"/>
    </g>
    <g text-rendering="geometricPrecision" stroke-miterlimit="1.45" shape-rendering="geometricPrecision" transform="matrix(1,0,0,1,-175,689)" stroke-linecap="butt">
      <path fill="none" d="M260.64 -500.96 L260.64 -488.36" clip-path="url(#clipPath2)"/>
      <path d="M260.64 -480.36 L265.64 -492.36 L260.64 -489.36 L255.64 -492.36 Z" clip-path="url(#clipPath2)" stroke="none"/>
      <path fill="none" stroke-dasharray="0,4" d="M311.8 -461.84 L495.488 -461.84 L495.488 -582.56 L718.5623 -582.56" stroke-dashoffset="2" clip-path="url(#clipPath2)" stroke-linecap="round"/>
      <path stroke-dasharray="0,4" d="M726.5623 -582.56 L714.5623 -587.56 L717.5623 -582.56 L714.5623 -577.56 Z" stroke-dashoffset="2" clip-path="url(#clipPath2)" stroke-linecap="round" stroke="none"/>
      <path fill="none" d="M260.64 -443.32 L260.64 -430.72" clip-path="url(#clipPath2)"/>
      <path d="M260.64 -422.72 L265.64 -434.72 L260.64 -431.72 L255.64 -434.72 Z" clip-path="url(#clipPath2)" stroke="none"/>
      <path fill="none" stroke-dasharray="0,4" d="M311.8 -411.5867 L316.048 -412.2 L400.168 -412.2 L400.168 -237.6487 L529.6414 -237.6487" stroke-dashoffset="2" clip-path="url(#clipPath2)" stroke-linecap="round"/>
      <path stroke-dasharray="0,4" d="M537.6414 -237.6487 L525.6414 -242.6487 L528.6414 -237.6487 L525.6414 -232.6487 Z" stroke-dashoffset="2" clip-path="url(#clipPath2)" stroke-linecap="round" stroke="none"/>
      <path fill="none" stroke-dasharray="6,2" d="M311.8271 -397.6296 L372.768 -397.6296 L372.768 197.6782 L535.8154 197.6782" clip-path="url(#clipPath2)"/>
      <path stroke-dasharray="6,2" d="M543.8154 197.6782 L531.8154 192.6782 L534.8154 197.6782 L531.8154 202.6782 Z" clip-path="url(#clipPath2)" stroke="none"/>
    </g>
  </g>
</svg>
