<?xml version="1.0" encoding="UTF-8"?><svg xmlns="http://www.w3.org/2000/svg" xmlns:xlink="http://www.w3.org/1999/xlink" fill-opacity="1" color-rendering="auto" color-interpolation="auto" text-rendering="auto" stroke="black" stroke-linecap="square" width="1377" stroke-miterlimit="10" shape-rendering="auto" stroke-opacity="1" fill="black" stroke-dasharray="none" font-weight="normal" stroke-width="1" height="2323" font-family="'Dialog'" font-style="normal" stroke-linejoin="miter" font-size="12px" stroke-dashoffset="0" image-rendering="auto">
  <!--Generated by ySVG 2.5-->
  <defs id="genericDefs"/>
  <g>
    <defs id="defs1">
      <clipPath clipPathUnits="userSpaceOnUse" id="clipPath1">
        <path d="M0 0 L1377 0 L1377 2323 L0 2323 L0 0 Z"/>
      </clipPath>
      <clipPath clipPathUnits="userSpaceOnUse" id="clipPath2">
        <path d="M10 -151 L1387 -151 L1387 2172 L10 2172 L10 -151 Z"/>
      </clipPath>
    </defs>
    <g fill="white" text-rendering="geometricPrecision" shape-rendering="geometricPrecision" transform="translate(-10,151)" stroke="white">
      <rect x="10" width="1377" height="2323" y="-151" clip-path="url(#clipPath2)" stroke="none"/>
    </g>
    <g fill="rgb(255,204,0)" text-rendering="geometricPrecision" shape-rendering="geometricPrecision" transform="matrix(1,0,0,1,-10,151)" stroke="rgb(255,204,0)">
      <rect x="415" width="154" height="61" y="59" clip-path="url(#clipPath2)" stroke="none"/>
    </g>
    <g text-rendering="geometricPrecision" stroke-miterlimit="1.45" shape-rendering="geometricPrecision" transform="matrix(1,0,0,1,-10,151)" stroke-linecap="butt">
      <rect fill="none" x="415" width="154" height="61" y="59" clip-path="url(#clipPath2)"/>
      <text x="432.334" xml:space="preserve" y="93.6543" clip-path="url(#clipPath2)" font-family="sans-serif" stroke="none">Allocate ELF header</text>
    </g>
    <g fill="rgb(255,204,0)" text-rendering="geometricPrecision" shape-rendering="geometricPrecision" transform="matrix(1,0,0,1,-10,151)" stroke="rgb(255,204,0)">
      <rect x="415" width="154" height="61" y="156" clip-path="url(#clipPath2)" stroke="none"/>
    </g>
    <g text-rendering="geometricPrecision" stroke-miterlimit="1.45" shape-rendering="geometricPrecision" transform="matrix(1,0,0,1,-10,151)" stroke-linecap="butt">
      <rect fill="none" x="415" width="154" height="61" y="156" clip-path="url(#clipPath2)"/>
      <text x="446.7305" xml:space="preserve" y="176.6855" clip-path="url(#clipPath2)" font-family="sans-serif" stroke="none">Get and check </text>
      <text x="440.3232" xml:space="preserve" y="190.6543" clip-path="url(#clipPath2)" font-family="sans-serif" stroke="none">ELF exec header </text>
      <text x="457.8516" xml:space="preserve" y="204.623" clip-path="url(#clipPath2)" font-family="sans-serif" stroke="none">(ex: magic)</text>
    </g>
    <g fill="rgb(255,204,0)" text-rendering="geometricPrecision" shape-rendering="geometricPrecision" transform="matrix(1,0,0,1,-10,151)" stroke="rgb(255,204,0)">
      <rect x="415" width="154" height="61" y="253" clip-path="url(#clipPath2)" stroke="none"/>
    </g>
    <g text-rendering="geometricPrecision" stroke-miterlimit="1.45" shape-rendering="geometricPrecision" transform="matrix(1,0,0,1,-10,151)" stroke-linecap="butt">
      <rect fill="none" x="415" width="154" height="61" y="253" clip-path="url(#clipPath2)"/>
      <text x="437.3584" xml:space="preserve" y="280.6699" clip-path="url(#clipPath2)" font-family="sans-serif" stroke="none">Load ELF program</text>
      <text x="467.7363" xml:space="preserve" y="294.6387" clip-path="url(#clipPath2)" font-family="sans-serif" stroke="none">headers</text>
    </g>
    <g fill="rgb(255,204,0)" text-rendering="geometricPrecision" shape-rendering="geometricPrecision" transform="matrix(1,0,0,1,-10,151)" stroke="rgb(255,204,0)">
      <rect x="415" width="154" height="61" y="350" clip-path="url(#clipPath2)" stroke="none"/>
    </g>
    <g text-rendering="geometricPrecision" stroke-miterlimit="1.45" shape-rendering="geometricPrecision" transform="matrix(1,0,0,1,-10,151)" stroke-linecap="butt">
      <rect fill="none" x="415" width="154" height="61" y="350" clip-path="url(#clipPath2)"/>
      <text x="437.3584" xml:space="preserve" y="377.6699" clip-path="url(#clipPath2)" font-family="sans-serif" stroke="none">Load ELF program</text>
      <text x="467.7363" xml:space="preserve" y="391.6387" clip-path="url(#clipPath2)" font-family="sans-serif" stroke="none">headers</text>
    </g>
    <g fill="rgb(255,204,0)" text-rendering="geometricPrecision" shape-rendering="geometricPrecision" transform="matrix(1,0,0,1,-10,151)" stroke="rgb(255,204,0)">
      <rect x="734" width="154" height="61" y="59" clip-path="url(#clipPath2)" stroke="none"/>
    </g>
    <g text-rendering="geometricPrecision" stroke-miterlimit="1.45" shape-rendering="geometricPrecision" transform="matrix(1,0,0,1,-10,151)" stroke-linecap="butt">
      <rect fill="none" x="734" width="154" height="61" y="59" clip-path="url(#clipPath2)"/>
      <text x="799.501" xml:space="preserve" y="93.6543" clip-path="url(#clipPath2)" font-family="sans-serif" stroke="none">Init </text>
    </g>
    <g fill="rgb(255,204,0)" text-rendering="geometricPrecision" shape-rendering="geometricPrecision" transform="matrix(1,0,0,1,-10,151)" stroke="rgb(255,204,0)">
      <rect x="415" width="154" height="61" y="447" clip-path="url(#clipPath2)" stroke="none"/>
    </g>
    <g text-rendering="geometricPrecision" stroke-miterlimit="1.45" shape-rendering="geometricPrecision" transform="matrix(1,0,0,1,-10,151)" stroke-linecap="butt">
      <rect fill="none" x="415" width="154" height="61" y="447" clip-path="url(#clipPath2)"/>
      <text x="437.7949" xml:space="preserve" y="467.6855" clip-path="url(#clipPath2)" font-family="sans-serif" stroke="none">Allocate and open</text>
      <text x="439.2129" xml:space="preserve" y="481.6543" clip-path="url(#clipPath2)" font-family="sans-serif" stroke="none">interpreter file in </text>
      <text x="458.8447" xml:space="preserve" y="495.623" clip-path="url(#clipPath2)" font-family="sans-serif" stroke="none">exec mode</text>
    </g>
    <g fill="rgb(255,204,0)" text-rendering="geometricPrecision" shape-rendering="geometricPrecision" transform="matrix(1,0,0,1,-10,151)" stroke="rgb(255,204,0)">
      <rect x="415" width="154" height="61" y="538" clip-path="url(#clipPath2)" stroke="none"/>
    </g>
    <g text-rendering="geometricPrecision" stroke-miterlimit="1.45" shape-rendering="geometricPrecision" transform="matrix(1,0,0,1,-10,151)" stroke-linecap="butt">
      <rect fill="none" x="415" width="154" height="61" y="538" clip-path="url(#clipPath2)"/>
      <text x="441.2285" xml:space="preserve" y="565.6699" clip-path="url(#clipPath2)" font-family="sans-serif" stroke="none">Load interpreter </text>
      <text x="454.7227" xml:space="preserve" y="579.6387" clip-path="url(#clipPath2)" font-family="sans-serif" stroke="none">exec header</text>
    </g>
    <g fill="rgb(255,204,0)" text-rendering="geometricPrecision" shape-rendering="geometricPrecision" transform="matrix(1,0,0,1,-10,151)" stroke="rgb(255,204,0)">
      <rect x="415" width="154" height="61" y="629" clip-path="url(#clipPath2)" stroke="none"/>
    </g>
    <g text-rendering="geometricPrecision" stroke-miterlimit="1.45" shape-rendering="geometricPrecision" transform="matrix(1,0,0,1,-10,151)" stroke-linecap="butt">
      <rect fill="none" x="415" width="154" height="61" y="629" clip-path="url(#clipPath2)"/>
      <text x="453.7646" xml:space="preserve" y="656.6699" clip-path="url(#clipPath2)" font-family="sans-serif" stroke="none">ELF program</text>
      <text x="452.1738" xml:space="preserve" y="670.6387" clip-path="url(#clipPath2)" font-family="sans-serif" stroke="none">header setup</text>
    </g>
    <g fill="rgb(255,204,0)" text-rendering="geometricPrecision" shape-rendering="geometricPrecision" transform="matrix(1,0,0,1,-10,151)" stroke="rgb(255,204,0)">
      <rect x="198.6667" width="154" height="61" y="58" clip-path="url(#clipPath2)" stroke="none"/>
    </g>
    <g text-rendering="geometricPrecision" stroke-miterlimit="1.45" shape-rendering="geometricPrecision" transform="matrix(1,0,0,1,-10,151)" stroke-linecap="butt">
      <rect fill="none" x="198.6667" width="154" height="61" y="58" clip-path="url(#clipPath2)"/>
      <text x="237.4313" xml:space="preserve" y="85.6699" clip-path="url(#clipPath2)" font-family="sans-serif" stroke="none">ELF program</text>
      <text x="235.8405" xml:space="preserve" y="99.6387" clip-path="url(#clipPath2)" font-family="sans-serif" stroke="none">header setup</text>
    </g>
    <g fill="rgb(255,204,0)" text-rendering="geometricPrecision" shape-rendering="geometricPrecision" transform="matrix(1,0,0,1,-10,151)" stroke="rgb(255,204,0)">
      <rect x="415" width="154" height="61" y="720" clip-path="url(#clipPath2)" stroke="none"/>
    </g>
    <g text-rendering="geometricPrecision" stroke-miterlimit="1.45" shape-rendering="geometricPrecision" transform="matrix(1,0,0,1,-10,151)" stroke-linecap="butt">
      <rect fill="none" x="415" width="154" height="61" y="720" clip-path="url(#clipPath2)"/>
      <text x="441.2285" xml:space="preserve" y="747.6699" clip-path="url(#clipPath2)" font-family="sans-serif" stroke="none">Load interpreter </text>
      <text x="440.0859" xml:space="preserve" y="761.6387" clip-path="url(#clipPath2)" font-family="sans-serif" stroke="none">program headers</text>
    </g>
    <g fill="rgb(255,153,204)" text-rendering="geometricPrecision" shape-rendering="geometricPrecision" transform="matrix(1,0,0,1,-10,151)" stroke="rgb(255,153,204)">
      <rect x="415" width="154" height="72" y="811" clip-path="url(#clipPath2)" stroke="none"/>
    </g>
    <g text-rendering="geometricPrecision" stroke-miterlimit="1.45" shape-rendering="geometricPrecision" transform="matrix(1,0,0,1,-10,151)" stroke-linecap="butt">
      <rect fill="none" x="415" width="154" height="72" y="811" clip-path="url(#clipPath2)"/>
      <text x="418.96" xml:space="preserve" y="830.2012" clip-path="url(#clipPath2)" font-family="sans-serif" stroke="none">Set ELF program header</text>
      <text x="423.7764" xml:space="preserve" y="844.1699" clip-path="url(#clipPath2)" font-family="sans-serif" stroke="none">to interpreter in types:</text>
      <text x="456.9521" xml:space="preserve" y="858.1387" clip-path="url(#clipPath2)" font-family="sans-serif" stroke="none">PT_LOPROC</text>
      <text x="458.7363" xml:space="preserve" y="872.1074" clip-path="url(#clipPath2)" font-family="sans-serif" stroke="none">PT_HIPROC</text>
    </g>
    <g fill="rgb(255,153,204)" text-rendering="geometricPrecision" shape-rendering="geometricPrecision" transform="matrix(1,0,0,1,-10,151)" stroke="rgb(255,153,204)">
      <rect x="415" width="154" height="61" y="913" clip-path="url(#clipPath2)" stroke="none"/>
    </g>
    <g text-rendering="geometricPrecision" stroke-miterlimit="1.45" shape-rendering="geometricPrecision" transform="matrix(1,0,0,1,-10,151)" stroke-linecap="butt">
      <rect fill="none" x="415" width="154" height="61" y="913" clip-path="url(#clipPath2)"/>
      <text x="434.7451" xml:space="preserve" y="933.6855" clip-path="url(#clipPath2)" font-family="sans-serif" stroke="none">Clean up old signal</text>
      <text x="478.8398" xml:space="preserve" y="947.6543" clip-path="url(#clipPath2)" font-family="sans-serif" stroke="none"> info</text>
      <text x="457.0195" xml:space="preserve" y="961.623" clip-path="url(#clipPath2)" font-family="sans-serif" stroke="none">de_thread()</text>
    </g>
    <g fill="rgb(255,153,204)" text-rendering="geometricPrecision" shape-rendering="geometricPrecision" transform="matrix(1,0,0,1,-10,151)" stroke="rgb(255,153,204)">
      <rect x="415" width="154" height="61" y="1004" clip-path="url(#clipPath2)" stroke="none"/>
    </g>
    <g text-rendering="geometricPrecision" stroke-miterlimit="1.45" shape-rendering="geometricPrecision" transform="matrix(1,0,0,1,-10,151)" stroke-linecap="butt">
      <rect fill="none" x="415" width="154" height="61" y="1004" clip-path="url(#clipPath2)"/>
      <text x="446.7598" xml:space="preserve" y="1038.6543" clip-path="url(#clipPath2)" font-family="sans-serif" stroke="none">Set personality</text>
    </g>
    <g fill="rgb(255,204,0)" text-rendering="geometricPrecision" shape-rendering="geometricPrecision" transform="matrix(1,0,0,1,-10,151)" stroke="rgb(255,204,0)">
      <rect x="415" width="154" height="61" y="1095" clip-path="url(#clipPath2)" stroke="none"/>
    </g>
    <g text-rendering="geometricPrecision" stroke-miterlimit="1.45" shape-rendering="geometricPrecision" transform="matrix(1,0,0,1,-10,151)" stroke-linecap="butt">
      <rect fill="none" x="415" width="154" height="61" y="1095" clip-path="url(#clipPath2)"/>
      <text x="448.4238" xml:space="preserve" y="1129.6543" clip-path="url(#clipPath2)" font-family="sans-serif" stroke="none">Set VM layout </text>
    </g>
    <g fill="rgb(255,204,0)" text-rendering="geometricPrecision" shape-rendering="geometricPrecision" transform="matrix(1,0,0,1,-10,151)" stroke="rgb(255,204,0)">
      <rect x="415" width="154" height="61" y="1186" clip-path="url(#clipPath2)" stroke="none"/>
    </g>
    <g text-rendering="geometricPrecision" stroke-miterlimit="1.45" shape-rendering="geometricPrecision" transform="matrix(1,0,0,1,-10,151)" stroke-linecap="butt">
      <rect fill="none" x="415" width="154" height="61" y="1186" clip-path="url(#clipPath2)"/>
      <text x="445.4443" xml:space="preserve" y="1220.6543" clip-path="url(#clipPath2)" font-family="sans-serif" stroke="none">Setup exec env</text>
    </g>
    <g fill="rgb(255,204,0)" text-rendering="geometricPrecision" shape-rendering="geometricPrecision" transform="matrix(1,0,0,1,-10,151)" stroke="rgb(255,204,0)">
      <rect x="644" width="154" height="61" y="720" clip-path="url(#clipPath2)" stroke="none"/>
    </g>
    <g text-rendering="geometricPrecision" stroke-miterlimit="1.45" shape-rendering="geometricPrecision" transform="matrix(1,0,0,1,-10,151)" stroke-linecap="butt">
      <rect fill="none" x="644" width="154" height="61" y="720" clip-path="url(#clipPath2)"/>
      <text x="673.917" xml:space="preserve" y="754.6543" clip-path="url(#clipPath2)" font-family="sans-serif" stroke="none">Init signal stack</text>
    </g>
    <g fill="rgb(255,204,0)" text-rendering="geometricPrecision" shape-rendering="geometricPrecision" transform="matrix(1,0,0,1,-10,151)" stroke="rgb(255,204,0)">
      <rect x="644" width="154" height="61" y="816.5" clip-path="url(#clipPath2)" stroke="none"/>
    </g>
    <g text-rendering="geometricPrecision" stroke-miterlimit="1.45" shape-rendering="geometricPrecision" transform="matrix(1,0,0,1,-10,151)" stroke-linecap="butt">
      <rect fill="none" x="644" width="154" height="61" y="816.5" clip-path="url(#clipPath2)"/>
      <text x="679.1318" xml:space="preserve" y="851.1543" clip-path="url(#clipPath2)" font-family="sans-serif" stroke="none">Set dumpable</text>
    </g>
    <g fill="rgb(255,204,0)" text-rendering="geometricPrecision" shape-rendering="geometricPrecision" transform="matrix(1,0,0,1,-10,151)" stroke="rgb(255,204,0)">
      <rect x="644" width="154" height="61" y="907.5" clip-path="url(#clipPath2)" stroke="none"/>
    </g>
    <g text-rendering="geometricPrecision" stroke-miterlimit="1.45" shape-rendering="geometricPrecision" transform="matrix(1,0,0,1,-10,151)" stroke-linecap="butt">
      <rect fill="none" x="644" width="154" height="61" y="907.5" clip-path="url(#clipPath2)"/>
      <text x="679.1318" xml:space="preserve" y="942.1543" clip-path="url(#clipPath2)" font-family="sans-serif" stroke="none">Set dumpable</text>
    </g>
    <g fill="rgb(255,204,0)" text-rendering="geometricPrecision" shape-rendering="geometricPrecision" transform="matrix(1,0,0,1,-10,151)" stroke="rgb(255,204,0)">
      <rect x="644" width="154" height="61" y="1004" clip-path="url(#clipPath2)" stroke="none"/>
    </g>
    <g text-rendering="geometricPrecision" stroke-miterlimit="1.45" shape-rendering="geometricPrecision" transform="matrix(1,0,0,1,-10,151)" stroke-linecap="butt">
      <rect fill="none" x="644" width="154" height="61" y="1004" clip-path="url(#clipPath2)"/>
      <text x="668.7607" xml:space="preserve" y="1038.6543" clip-path="url(#clipPath2)" font-family="sans-serif" stroke="none">Set new task size</text>
    </g>
    <g fill="rgb(255,153,204)" text-rendering="geometricPrecision" shape-rendering="geometricPrecision" transform="matrix(1,0,0,1,-10,151)" stroke="rgb(255,153,204)">
      <rect x="644" width="154" height="61" y="1186" clip-path="url(#clipPath2)" stroke="none"/>
    </g>
    <g text-rendering="geometricPrecision" stroke-miterlimit="1.45" shape-rendering="geometricPrecision" transform="matrix(1,0,0,1,-10,151)" stroke-linecap="butt">
      <rect fill="none" x="644" width="154" height="61" y="1186" clip-path="url(#clipPath2)"/>
      <text x="661.876" xml:space="preserve" y="1213.6699" clip-path="url(#clipPath2)" font-family="sans-serif" stroke="none">Leave thread group</text>
      <text x="645.5664" xml:space="preserve" y="1227.6387" clip-path="url(#clipPath2)" font-family="sans-serif" stroke="none">current-&gt;self_exec_id++</text>
    </g>
    <g fill="rgb(255,204,0)" text-rendering="geometricPrecision" shape-rendering="geometricPrecision" transform="matrix(1,0,0,1,-10,151)" stroke="rgb(255,204,0)">
      <rect x="644" width="154" height="61" y="1095" clip-path="url(#clipPath2)" stroke="none"/>
    </g>
    <g text-rendering="geometricPrecision" stroke-miterlimit="1.45" shape-rendering="geometricPrecision" transform="matrix(1,0,0,1,-10,151)" stroke-linecap="butt">
      <rect fill="none" x="644" width="154" height="61" y="1095" clip-path="url(#clipPath2)"/>
      <text x="679.1318" xml:space="preserve" y="1129.6543" clip-path="url(#clipPath2)" font-family="sans-serif" stroke="none">Set dumpable</text>
    </g>
    <g fill="rgb(255,153,204)" text-rendering="geometricPrecision" shape-rendering="geometricPrecision" transform="matrix(1,0,0,1,-10,151)" stroke="rgb(255,153,204)">
      <rect x="415" width="154" height="61" y="1277" clip-path="url(#clipPath2)" stroke="none"/>
    </g>
    <g text-rendering="geometricPrecision" stroke-miterlimit="1.45" shape-rendering="geometricPrecision" transform="matrix(1,0,0,1,-10,151)" stroke-linecap="butt">
      <rect fill="none" x="415" width="154" height="61" y="1277" clip-path="url(#clipPath2)"/>
      <text x="438.7822" xml:space="preserve" y="1311.6543" clip-path="url(#clipPath2)" font-family="sans-serif" stroke="none">Install credentails</text>
    </g>
    <g fill="rgb(255,153,204)" text-rendering="geometricPrecision" shape-rendering="geometricPrecision" transform="matrix(1,0,0,1,-10,151)" stroke="rgb(255,153,204)">
      <rect x="415" width="154" height="61" y="1368" clip-path="url(#clipPath2)" stroke="none"/>
    </g>
    <g text-rendering="geometricPrecision" stroke-miterlimit="1.45" shape-rendering="geometricPrecision" transform="matrix(1,0,0,1,-10,151)" stroke-linecap="butt">
      <rect fill="none" x="415" width="154" height="61" y="1368" clip-path="url(#clipPath2)"/>
      <text x="444.6357" xml:space="preserve" y="1395.6699" clip-path="url(#clipPath2)" font-family="sans-serif" stroke="none">Setup stack for </text>
      <text x="429.4541" xml:space="preserve" y="1409.6387" clip-path="url(#clipPath2)" font-family="sans-serif" stroke="none">interpreter if needed</text>
    </g>
    <g fill="rgb(255,204,0)" text-rendering="geometricPrecision" shape-rendering="geometricPrecision" transform="matrix(1,0,0,1,-10,151)" stroke="rgb(255,204,0)">
      <rect x="415" width="154" height="61" y="1459" clip-path="url(#clipPath2)" stroke="none"/>
    </g>
    <g text-rendering="geometricPrecision" stroke-miterlimit="1.45" shape-rendering="geometricPrecision" transform="matrix(1,0,0,1,-10,151)" stroke-linecap="butt">
      <rect fill="none" x="415" width="154" height="61" y="1459" clip-path="url(#clipPath2)"/>
      <text x="433.1631" xml:space="preserve" y="1486.6699" clip-path="url(#clipPath2)" font-family="sans-serif" stroke="none">Mapping ELF image</text>
      <text x="459" xml:space="preserve" y="1500.6387" clip-path="url(#clipPath2)" font-family="sans-serif" stroke="none">to memory</text>
    </g>
    <g fill="rgb(255,204,0)" text-rendering="geometricPrecision" shape-rendering="geometricPrecision" transform="matrix(1,0,0,1,-10,151)" stroke="rgb(255,204,0)">
      <rect x="415" width="154" height="61" y="1550" clip-path="url(#clipPath2)" stroke="none"/>
    </g>
    <g text-rendering="geometricPrecision" stroke-miterlimit="1.45" shape-rendering="geometricPrecision" transform="matrix(1,0,0,1,-10,151)" stroke-linecap="butt">
      <rect fill="none" x="415" width="154" height="61" y="1550" clip-path="url(#clipPath2)"/>
      <text x="425.6162" xml:space="preserve" y="1570.6855" clip-path="url(#clipPath2)" font-family="sans-serif" stroke="none">Mapping brk and bss  </text>
      <text x="422.3086" xml:space="preserve" y="1584.6543" clip-path="url(#clipPath2)" font-family="sans-serif" stroke="none">pages before mapping </text>
      <text x="459.542" xml:space="preserve" y="1598.623" clip-path="url(#clipPath2)" font-family="sans-serif" stroke="none">interpreter</text>
    </g>
    <g fill="rgb(255,204,0)" text-rendering="geometricPrecision" shape-rendering="geometricPrecision" transform="matrix(1,0,0,1,-10,151)" stroke="rgb(255,204,0)">
      <rect x="415" width="154" height="61" y="1641" clip-path="url(#clipPath2)" stroke="none"/>
    </g>
    <g text-rendering="geometricPrecision" stroke-miterlimit="1.45" shape-rendering="geometricPrecision" transform="matrix(1,0,0,1,-10,151)" stroke-linecap="butt">
      <rect fill="none" x="415" width="154" height="61" y="1641" clip-path="url(#clipPath2)"/>
      <text x="433.1631" xml:space="preserve" y="1668.6699" clip-path="url(#clipPath2)" font-family="sans-serif" stroke="none">Mapping ELF image</text>
      <text x="459" xml:space="preserve" y="1682.6387" clip-path="url(#clipPath2)" font-family="sans-serif" stroke="none">to memory</text>
    </g>
    <g fill="rgb(255,153,204)" text-rendering="geometricPrecision" shape-rendering="geometricPrecision" transform="matrix(1,0,0,1,-10,151)" stroke="rgb(255,153,204)">
      <rect x="415" width="154" height="61" y="1732" clip-path="url(#clipPath2)" stroke="none"/>
    </g>
    <g text-rendering="geometricPrecision" stroke-miterlimit="1.45" shape-rendering="geometricPrecision" transform="matrix(1,0,0,1,-10,151)" stroke-linecap="butt">
      <rect fill="none" x="415" width="154" height="61" y="1732" clip-path="url(#clipPath2)"/>
      <text x="443.1357" xml:space="preserve" y="1766.6543" clip-path="url(#clipPath2)" font-family="sans-serif" stroke="none">Load interpreter</text>
    </g>
    <g fill="rgb(255,204,0)" text-rendering="geometricPrecision" shape-rendering="geometricPrecision" transform="matrix(1,0,0,1,-10,151)" stroke="rgb(255,204,0)">
      <rect x="415" width="154" height="61" y="1823" clip-path="url(#clipPath2)" stroke="none"/>
    </g>
    <g text-rendering="geometricPrecision" stroke-miterlimit="1.45" shape-rendering="geometricPrecision" transform="matrix(1,0,0,1,-10,151)" stroke-linecap="butt">
      <rect fill="none" x="415" width="154" height="61" y="1823" clip-path="url(#clipPath2)"/>
      <text x="449.0596" xml:space="preserve" y="1857.6543" clip-path="url(#clipPath2)" font-family="sans-serif" stroke="none">Loading VDSO</text>
    </g>
    <g fill="rgb(255,204,0)" text-rendering="geometricPrecision" shape-rendering="geometricPrecision" transform="matrix(1,0,0,1,-10,151)" stroke="rgb(255,204,0)">
      <rect x="638.6935" width="164.613" height="61" y="1366.5528" clip-path="url(#clipPath2)" stroke="none"/>
    </g>
    <g text-rendering="geometricPrecision" stroke-miterlimit="1.45" shape-rendering="geometricPrecision" transform="matrix(1,0,0,1,-10,151)" stroke-linecap="butt">
      <rect fill="none" x="638.6935" width="164.613" height="61" y="1366.5528" clip-path="url(#clipPath2)"/>
      <text x="693.6104" xml:space="preserve" y="1387.2383" clip-path="url(#clipPath2)" font-family="sans-serif" stroke="none">Optional:</text>
      <text x="643.9258" xml:space="preserve" y="1401.207" clip-path="url(#clipPath2)" font-family="sans-serif" stroke="none">Copy platform capablities</text>
      <text x="674.8867" xml:space="preserve" y="1415.1758" clip-path="url(#clipPath2)" font-family="sans-serif" stroke="none">to user process</text>
    </g>
    <g fill="rgb(255,204,0)" text-rendering="geometricPrecision" shape-rendering="geometricPrecision" transform="matrix(1,0,0,1,-10,151)" stroke="rgb(255,204,0)">
      <rect x="644" width="154" height="61" y="1459" clip-path="url(#clipPath2)" stroke="none"/>
    </g>
    <g text-rendering="geometricPrecision" stroke-miterlimit="1.45" shape-rendering="geometricPrecision" transform="matrix(1,0,0,1,-10,151)" stroke-linecap="butt">
      <rect fill="none" x="644" width="154" height="61" y="1459" clip-path="url(#clipPath2)"/>
      <text x="665.8926" xml:space="preserve" y="1479.6855" clip-path="url(#clipPath2)" font-family="sans-serif" stroke="none">Generate random </text>
      <text x="652.9229" xml:space="preserve" y="1493.6543" clip-path="url(#clipPath2)" font-family="sans-serif" stroke="none">number for user space</text>
      <text x="706.6826" xml:space="preserve" y="1507.623" clip-path="url(#clipPath2)" font-family="sans-serif" stroke="none">seed</text>
    </g>
    <g fill="rgb(255,204,0)" text-rendering="geometricPrecision" shape-rendering="geometricPrecision" transform="matrix(1,0,0,1,-10,151)" stroke="rgb(255,204,0)">
      <rect x="644" width="154" height="61" y="1550" clip-path="url(#clipPath2)" stroke="none"/>
    </g>
    <g text-rendering="geometricPrecision" stroke-miterlimit="1.45" shape-rendering="geometricPrecision" transform="matrix(1,0,0,1,-10,151)" stroke-linecap="butt">
      <rect fill="none" x="644" width="154" height="61" y="1550" clip-path="url(#clipPath2)"/>
      <text x="669.0332" xml:space="preserve" y="1577.6699" clip-path="url(#clipPath2)" font-family="sans-serif" stroke="none">Create intepreter</text>
      <text x="686.2656" xml:space="preserve" y="1591.6387" clip-path="url(#clipPath2)" font-family="sans-serif" stroke="none">information</text>
    </g>
    <g fill="rgb(255,204,0)" text-rendering="geometricPrecision" shape-rendering="geometricPrecision" transform="matrix(1,0,0,1,-10,151)" stroke="rgb(255,204,0)">
      <rect x="645.6031" width="154" height="61" y="1641" clip-path="url(#clipPath2)" stroke="none"/>
    </g>
    <g text-rendering="geometricPrecision" stroke-miterlimit="1.45" shape-rendering="geometricPrecision" transform="matrix(1,0,0,1,-10,151)" stroke-linecap="butt">
      <rect fill="none" x="645.6031" width="154" height="61" y="1641" clip-path="url(#clipPath2)"/>
      <text x="670.6773" xml:space="preserve" y="1668.6699" clip-path="url(#clipPath2)" font-family="sans-serif" stroke="none">Set ELF AUX info </text>
      <text x="666.8658" xml:space="preserve" y="1682.6387" clip-path="url(#clipPath2)" font-family="sans-serif" stroke="none">with Key=val from</text>
    </g>
    <g fill="rgb(255,204,0)" text-rendering="geometricPrecision" shape-rendering="geometricPrecision" transform="matrix(1,0,0,1,-10,151)" stroke="rgb(255,204,0)">
      <rect x="647.8092" width="154" height="61" y="1732" clip-path="url(#clipPath2)" stroke="none"/>
    </g>
    <g text-rendering="geometricPrecision" stroke-miterlimit="1.45" shape-rendering="geometricPrecision" transform="matrix(1,0,0,1,-10,151)" stroke-linecap="butt">
      <rect fill="none" x="647.8092" width="154" height="61" y="1732" clip-path="url(#clipPath2)"/>
      <text x="674.8698" xml:space="preserve" y="1766.6543" clip-path="url(#clipPath2)" font-family="sans-serif" stroke="none">Setup argc, argv</text>
    </g>
    <g fill="rgb(255,204,0)" text-rendering="geometricPrecision" shape-rendering="geometricPrecision" transform="matrix(1,0,0,1,-10,151)" stroke="rgb(255,204,0)">
      <rect x="650.4025" width="154" height="61" y="1823" clip-path="url(#clipPath2)" stroke="none"/>
    </g>
    <g text-rendering="geometricPrecision" stroke-miterlimit="1.45" shape-rendering="geometricPrecision" transform="matrix(1,0,0,1,-10,151)" stroke-linecap="butt">
      <rect fill="none" x="650.4025" width="154" height="61" y="1823" clip-path="url(#clipPath2)"/>
      <text x="669.6876" xml:space="preserve" y="1850.6699" clip-path="url(#clipPath2)" font-family="sans-serif" stroke="none">Setup environment</text>
      <text x="700.0714" xml:space="preserve" y="1864.6387" clip-path="url(#clipPath2)" font-family="sans-serif" stroke="none">variables</text>
    </g>
    <g fill="rgb(255,204,0)" text-rendering="geometricPrecision" shape-rendering="geometricPrecision" transform="matrix(1,0,0,1,-10,151)" stroke="rgb(255,204,0)">
      <rect x="650.4025" width="154" height="61" y="1914" clip-path="url(#clipPath2)" stroke="none"/>
    </g>
    <g text-rendering="geometricPrecision" stroke-miterlimit="1.45" shape-rendering="geometricPrecision" transform="matrix(1,0,0,1,-10,151)" stroke-linecap="butt">
      <rect fill="none" x="650.4025" width="154" height="61" y="1914" clip-path="url(#clipPath2)"/>
      <text x="660.7404" xml:space="preserve" y="1948.6543" clip-path="url(#clipPath2)" font-family="sans-serif" stroke="none">Put ELF info into stack</text>
    </g>
    <g fill="rgb(255,204,0)" text-rendering="geometricPrecision" shape-rendering="geometricPrecision" transform="matrix(1,0,0,1,-10,151)" stroke="rgb(255,204,0)">
      <rect x="415" width="154" height="61" y="1914" clip-path="url(#clipPath2)" stroke="none"/>
    </g>
    <g text-rendering="geometricPrecision" stroke-miterlimit="1.45" shape-rendering="geometricPrecision" transform="matrix(1,0,0,1,-10,151)" stroke-linecap="butt">
      <rect fill="none" x="415" width="154" height="61" y="1914" clip-path="url(#clipPath2)"/>
      <text x="441.0234" xml:space="preserve" y="1948.6543" clip-path="url(#clipPath2)" font-family="sans-serif" stroke="none">Create ELF Table</text>
    </g>
    <g fill="rgb(255,204,0)" text-rendering="geometricPrecision" shape-rendering="geometricPrecision" transform="matrix(1,0,0,1,-10,151)" stroke="rgb(255,204,0)">
      <rect x="405.7664" width="172.4673" height="61" y="2005" clip-path="url(#clipPath2)" stroke="none"/>
    </g>
    <g text-rendering="geometricPrecision" stroke-miterlimit="1.45" shape-rendering="geometricPrecision" transform="matrix(1,0,0,1,-10,151)" stroke-linecap="butt">
      <rect fill="none" x="405.7664" width="172.4673" height="61" y="2005" clip-path="url(#clipPath2)"/>
      <text x="412.5996" xml:space="preserve" y="2018.7012" clip-path="url(#clipPath2)" font-family="sans-serif" stroke="none">Set MM process boudary</text>
      <text x="412.5996" xml:space="preserve" y="2032.6699" clip-path="url(#clipPath2)" font-family="sans-serif" stroke="none">with randomized value. </text>
      <text x="412.5996" xml:space="preserve" y="2046.6387" clip-path="url(#clipPath2)" font-family="sans-serif" stroke="none">ex: </text>
      <text x="412.5996" xml:space="preserve" y="2060.6074" clip-path="url(#clipPath2)" font-family="sans-serif" stroke="none">current-&gt;mm-&gt;start_code</text>
    </g>
    <g fill="rgb(255,204,0)" text-rendering="geometricPrecision" shape-rendering="geometricPrecision" transform="matrix(1,0,0,1,-10,151)" stroke="rgb(255,204,0)">
      <rect x="415" width="154" height="61" y="2096" clip-path="url(#clipPath2)" stroke="none"/>
    </g>
    <g text-rendering="geometricPrecision" stroke-miterlimit="1.45" shape-rendering="geometricPrecision" transform="matrix(1,0,0,1,-10,151)" stroke-linecap="butt">
      <rect fill="none" x="415" width="154" height="61" y="2096" clip-path="url(#clipPath2)"/>
      <text x="455.6367" xml:space="preserve" y="2130.6543" clip-path="url(#clipPath2)" font-family="sans-serif" stroke="none">Start thread</text>
      <text x="27.9682" font-size="24px" y="-107.4845" clip-path="url(#clipPath2)" font-family="sans-serif" stroke="none" xml:space="preserve">load_elf_binary trace</text>
      <text x="27.9682" font-size="24px" y="-79.547" clip-path="url(#clipPath2)" font-family="sans-serif" stroke="none" xml:space="preserve"> </text>
      <text x="27.9682" font-size="24px" y="-51.6095" clip-path="url(#clipPath2)" font-family="sans-serif" stroke="none" xml:space="preserve">* Traca kernel 版本：commit 592f5569e18471c07208f74540f4e0f646b226f7 (HEAD -&gt; v4.14.90, tag: v4.14.90)</text>
      <text x="27.9682" font-size="24px" y="-23.672" clip-path="url(#clipPath2)" font-family="sans-serif" stroke="none" xml:space="preserve">* 粉紅色為看不懂的部份</text>
      <text x="27.9682" font-size="24px" y="4.2655" clip-path="url(#clipPath2)" font-family="sans-serif" stroke="none" xml:space="preserve">* 往外長方塊的表示是呼叫函數的細節</text>
      <path fill="none" d="M492 120 L492 148" clip-path="url(#clipPath2)"/>
      <path d="M492 156 L497 144 L492 147 L487 144 Z" clip-path="url(#clipPath2)" stroke="none"/>
      <path fill="none" d="M492 217 L492 245" clip-path="url(#clipPath2)"/>
      <path d="M492 253 L497 241 L492 244 L487 241 Z" clip-path="url(#clipPath2)" stroke="none"/>
      <path fill="none" d="M492 314 L492 342" clip-path="url(#clipPath2)"/>
      <path d="M492 350 L497 338 L492 341 L487 338 Z" clip-path="url(#clipPath2)" stroke="none"/>
      <path fill="none" d="M569 380.5 L617.6667 380.5 L617.6667 89.5 L726 89.5" clip-path="url(#clipPath2)"/>
      <path d="M734 89.5 L722 84.5 L725 89.5 L722 94.5 Z" clip-path="url(#clipPath2)" stroke="none"/>
      <path fill="none" d="M810.4235 120 L803.6667 477.5 L577 477.5" clip-path="url(#clipPath2)"/>
      <path d="M569 477.5 L581 482.5 L578 477.5 L581 472.5 Z" clip-path="url(#clipPath2)" stroke="none"/>
      <path fill="none" d="M492 508 L492 530" clip-path="url(#clipPath2)"/>
      <path d="M492 538 L497 526 L492 529 L487 526 Z" clip-path="url(#clipPath2)" stroke="none"/>
      <path fill="none" d="M492 599 L492 621" clip-path="url(#clipPath2)"/>
      <path d="M492 629 L497 617 L492 620 L487 617 Z" clip-path="url(#clipPath2)" stroke="none"/>
      <path fill="none" d="M415 659.5 L389.3333 659.5 L389.3333 88.5 L360.6667 88.5" clip-path="url(#clipPath2)"/>
      <path d="M352.6667 88.5 L364.6667 93.5 L361.6667 88.5 L364.6667 83.5 Z" clip-path="url(#clipPath2)" stroke="none"/>
      <path fill="none" d="M275.6667 119 L275.6667 750.5 L407 750.5" clip-path="url(#clipPath2)"/>
      <path d="M415 750.5 L403 745.5 L406 750.5 L403 755.5 Z" clip-path="url(#clipPath2)" stroke="none"/>
      <path fill="none" d="M492 781 L492 803" clip-path="url(#clipPath2)"/>
      <path d="M492 811 L497 799 L492 802 L487 799 Z" clip-path="url(#clipPath2)" stroke="none"/>
      <path fill="none" d="M492 883 L492 905" clip-path="url(#clipPath2)"/>
      <path d="M492 913 L497 901 L492 904 L487 901 Z" clip-path="url(#clipPath2)" stroke="none"/>
      <path fill="none" d="M492 974 L492 996" clip-path="url(#clipPath2)"/>
      <path d="M492 1004 L497 992 L492 995 L487 992 Z" clip-path="url(#clipPath2)" stroke="none"/>
      <path fill="none" d="M492 1065 L492 1087" clip-path="url(#clipPath2)"/>
      <path d="M492 1095 L497 1083 L492 1086 L487 1083 Z" clip-path="url(#clipPath2)" stroke="none"/>
      <path fill="none" d="M492 1156 L492 1178" clip-path="url(#clipPath2)"/>
      <path d="M492 1186 L497 1174 L492 1177 L487 1174 Z" clip-path="url(#clipPath2)" stroke="none"/>
      <path fill="none" d="M569 1216.5 L615 1216.5 L615 750.5 L636 750.5" clip-path="url(#clipPath2)"/>
      <path d="M644 750.5 L632 745.5 L635 750.5 L632 755.5 Z" clip-path="url(#clipPath2)" stroke="none"/>
      <path fill="none" d="M721 781 L721 808.5" clip-path="url(#clipPath2)"/>
      <path d="M721 816.5 L726 804.5 L721 807.5 L716 804.5 Z" clip-path="url(#clipPath2)" stroke="none"/>
      <path fill="none" d="M721 877.5 L721 899.5" clip-path="url(#clipPath2)"/>
      <path d="M721 907.5 L726 895.5 L721 898.5 L716 895.5 Z" clip-path="url(#clipPath2)" stroke="none"/>
      <path fill="none" d="M721 968.5 L721 996" clip-path="url(#clipPath2)"/>
      <path d="M721 1004 L726 992 L721 995 L716 992 Z" clip-path="url(#clipPath2)" stroke="none"/>
      <path fill="none" d="M721 1065 L721 1087" clip-path="url(#clipPath2)"/>
      <path d="M721 1095 L726 1083 L721 1086 L716 1083 Z" clip-path="url(#clipPath2)" stroke="none"/>
      <path fill="none" d="M721 1156 L721 1178" clip-path="url(#clipPath2)"/>
      <path d="M721 1186 L726 1174 L721 1177 L716 1174 Z" clip-path="url(#clipPath2)" stroke="none"/>
      <path fill="none" d="M721 1247 L721 1307.5 L577 1307.5" clip-path="url(#clipPath2)"/>
      <path d="M569 1307.5 L581 1312.5 L578 1307.5 L581 1302.5 Z" clip-path="url(#clipPath2)" stroke="none"/>
      <path fill="none" d="M492 1338 L492 1360" clip-path="url(#clipPath2)"/>
      <path d="M492 1368 L497 1356 L492 1359 L487 1356 Z" clip-path="url(#clipPath2)" stroke="none"/>
      <path fill="none" d="M492 1429 L492 1451" clip-path="url(#clipPath2)"/>
      <path d="M492 1459 L497 1447 L492 1450 L487 1447 Z" clip-path="url(#clipPath2)" stroke="none"/>
      <path fill="none" d="M492 1520 L492 1542" clip-path="url(#clipPath2)"/>
      <path d="M492 1550 L497 1538 L492 1541 L487 1538 Z" clip-path="url(#clipPath2)" stroke="none"/>
      <path fill="none" d="M492 1611 L492 1633" clip-path="url(#clipPath2)"/>
      <path d="M492 1641 L497 1629 L492 1632 L487 1629 Z" clip-path="url(#clipPath2)" stroke="none"/>
      <path fill="none" d="M492 1702 L492 1724" clip-path="url(#clipPath2)"/>
      <path d="M492 1732 L497 1720 L492 1723 L487 1720 Z" clip-path="url(#clipPath2)" stroke="none"/>
      <path fill="none" d="M492 1793 L492 1815" clip-path="url(#clipPath2)"/>
      <path d="M492 1823 L497 1811 L492 1814 L487 1811 Z" clip-path="url(#clipPath2)" stroke="none"/>
      <path fill="none" d="M721 1427.5527 L721 1451" clip-path="url(#clipPath2)"/>
      <path d="M721 1459 L726 1447 L721 1450 L716 1447 Z" clip-path="url(#clipPath2)" stroke="none"/>
      <path fill="none" d="M721 1520 L721 1542" clip-path="url(#clipPath2)"/>
      <path d="M721 1550 L726 1538 L721 1541 L716 1538 Z" clip-path="url(#clipPath2)" stroke="none"/>
      <path fill="none" d="M721.5373 1611 L721.9249 1633.0012" clip-path="url(#clipPath2)"/>
      <path d="M722.0658 1641 L726.8536 1628.9138 L721.9072 1632.0013 L716.8552 1629.09 Z" clip-path="url(#clipPath2)" stroke="none"/>
      <path fill="none" d="M723.3425 1702 L723.8759 1724.0023" clip-path="url(#clipPath2)"/>
      <path d="M724.0698 1732 L728.7775 1719.8823 L723.8517 1723.0027 L718.7805 1720.1248 Z" clip-path="url(#clipPath2)" stroke="none"/>
      <path fill="none" d="M725.6784 1793 L726.3054 1815.0033" clip-path="url(#clipPath2)"/>
      <path d="M726.5333 1823 L731.1895 1810.8624 L726.2769 1814.0037 L721.1935 1811.1473 Z" clip-path="url(#clipPath2)" stroke="none"/>
      <path fill="none" d="M727.4025 1884 L727.4025 1906" clip-path="url(#clipPath2)"/>
      <path d="M727.4025 1914 L732.4025 1902 L727.4025 1905 L722.4025 1902 Z" clip-path="url(#clipPath2)" stroke="none"/>
      <path fill="none" d="M492 1884 L492 1906" clip-path="url(#clipPath2)"/>
      <path d="M492 1914 L497 1902 L492 1905 L487 1902 Z" clip-path="url(#clipPath2)" stroke="none"/>
      <path fill="none" d="M569 1944.5 L601.6587 1944.5 L601.6587 1397.0527 L630.6935 1397.0527" clip-path="url(#clipPath2)"/>
      <path d="M638.6935 1397.0527 L626.6935 1392.0527 L629.6935 1397.0527 L626.6935 1402.0527 Z" clip-path="url(#clipPath2)" stroke="none"/>
      <path fill="none" d="M727.4025 1975 L727.4025 2035.5 L586.2336 2035.5" clip-path="url(#clipPath2)"/>
      <path d="M578.2336 2035.5 L590.2336 2040.5 L587.2336 2035.5 L590.2336 2030.5 Z" clip-path="url(#clipPath2)" stroke="none"/>
      <path fill="none" d="M492 2066 L492 2088" clip-path="url(#clipPath2)"/>
      <path d="M492 2096 L497 2084 L492 2087 L487 2084 Z" clip-path="url(#clipPath2)" stroke="none"/>
    </g>
  </g>
</svg>
